# xmcd
#
# Track frame offsets:
#	150
#	11166
#	20878
#	33583
#	45593
#	56124
#	67290
#	79067
#	92311
#	103142
#	115878
#	127846
#	138108
#	150081
#	160933
#	171159
#	183036
#	194621
#	204937
#	215756
#	226885
#	247051
#	256149
#	269395
#	281532
#	292205
#	301680
#	312207
#	324516
#	335982
#	346862
#
# Disc length: 4749 seconds
# Revision: 0
# Processed by: cddbd v1.5.2PL0 Copyright (c) Steve Scherf et al.
# Submitted via: dBpowerAMP V12.0
#
DISCID=c4128b1f
DTITLE=Earl King - Let The Good Times Roll - Ace and Imperial Singles 1955-62
DYEAR=2015
DGENRE=Blues and Soul
TTITLE0=Those Lonely, Lonely Nights
TTITLE1=Baby You Can Get Your Gun
TTITLE2=Everybody Got To Cry
TTITLE3=I Met A Stranger
TTITLE4=Little Girl
TTITLE5=My Love Is Strong
TTITLE6=It Must Have Been Love
TTITLE7=I'll Take You Back Home
TTITLE8=Mother Told Me Not To Go
TTITLE9=Is Everything All Right
TTITLE10=Those Lonely, Lonely Feelings
TTITLE11=You Can Fly High
TTITLE12=Well O Well O Baby
TTITLE13=I'll Never Get Tired
TTITLE14=Everybody's Carried Away
TTITLE15=Weary Silent Night
TTITLE16=Don't You Know You're Wrong
TTITLE17=Buddy It's Time To Go
TTITLE18=Darling Honey Angel Child
TTITLE19=I Can't Help Myself
TTITLE20=Come On (Parts 1 and 2)
TTITLE21=Love Me Now
TTITLE22=The Things That I Used To Do
TTITLE23=You're More To Me Than Gold
TTITLE24=Come Along With Me
TTITLE25=You Better Know
TTITLE26=Mama And Papa
TTITLE27=Trick Bag
TTITLE28=Always A First Time
TTITLE29=We Are Just Good Friends
TTITLE30=A Case Of Love
EXTD=
EXTT0=
EXTT1=
EXTT2=
EXTT3=
EXTT4=
EXTT5=
EXTT6=
EXTT7=
EXTT8=
EXTT9=
EXTT10=
EXTT11=
EXTT12=
EXTT13=
EXTT14=
EXTT15=
EXTT16=
EXTT17=
EXTT18=
EXTT19=
EXTT20=
EXTT21=
EXTT22=
EXTT23=
EXTT24=
EXTT25=
EXTT26=
EXTT27=
EXTT28=
EXTT29=
EXTT30=
PLAYORDER=
